<svg xmlns="http://www.w3.org/2000/svg" viewBox="0 0 800 800"><defs><style>.cls-1{fill:#35424e;}.cls-2{fill:#333;}.cls-3{fill:none;}.cls-4{fill:teal;}.cls-5{font-size:95px;fill:#222f42;font-family:Anton-Regular, Anton;}</style></defs><title>start-01</title><g id="objects"><path class="cls-1" d="M193.13,237.42c-6.86-6.87-17-7.39-23.91-.53l-29.83,29.84c-6.86,6.85-6.34,17,.53,23.9,6,6,15.12,6.5,22.64,1.29l17.23,17.22,31.85-31.85-17.22-17.23C199.64,252.54,199.14,243.43,193.13,237.42Z"/><path class="cls-1" d="M387.65,231.24c-63.33,0-114.84-48.06-114.84-107.12S324.32,17,387.65,17,502.48,65.06,502.48,124.12,451,231.24,387.65,231.24Zm0-192.71c-51.45,0-93.31,38.4-93.31,85.59s41.86,85.58,93.31,85.58S481,171.31,481,124.12,439.09,38.53,387.65,38.53Z"/><path class="cls-1" d="M385.85,765C231.54,765,106,639.45,106,485.14S231.54,205.29,385.85,205.29,665.71,330.83,665.71,485.14,540.16,765,385.85,765Zm0-527.41c-136.5,0-247.55,111-247.55,247.55s111,247.57,247.55,247.57S633.41,621.65,633.41,485.14,522.36,237.59,385.85,237.59Z"/><rect class="cls-2" x="377.08" y="259.24" width="22.44" height="37.4"/><polygon class="cls-1" points="260.61 343.77 245.38 359 218.74 332.36 233.96 317.13 260.61 343.77"/><rect class="cls-1" x="160.16" y="476.16" width="41.14" height="22.44"/><polygon class="cls-1" points="245.38 610.24 260.61 625.46 233.96 652.11 218.74 636.88 245.38 610.24"/><rect class="cls-1" x="377.08" y="674.38" width="22.44" height="37.4"/><polygon class="cls-1" points="511.83 625.46 527.06 610.24 553.71 636.88 538.48 652.11 511.83 625.46"/><rect class="cls-1" x="575.3" y="476.16" width="37.4" height="22.44"/><polygon class="cls-1" points="527.06 359 511.83 343.77 538.48 317.13 553.71 332.36 527.06 359"/><rect class="cls-1" x="354.64" y="143.3" width="71.06" height="89.76"/><rect class="cls-1" x="328.46" y="87.2" width="123.42" height="71.06" rx="5.38" ry="5.38"/><polyline class="cls-3" points="511.44 610.73 504.23 603.51 385.85 485.14"/><line class="cls-3" x1="266.83" y1="366.13" x2="260.26" y2="359.55"/><line class="cls-3" x1="260.24" y1="610.75" x2="511.47" y2="359.53"/><path class="cls-3" d="M388.3,316.6V485.14l-119-119C299.69,335.55,343.42,316.6,388.3,316.6Z"/><text></text><path class="cls-4" d="M556.6,484.5v.64c0,46.19-20.4,87.91-50.71,118.12-.05.1-1.07-.08-1.18,0a168.64,168.64,0,0,1-118.86,48.65h-.27a165.58,165.58,0,0,1-117.73-48.65,7,7,0,0,0-.16,1C237.27,574.05,219,528.52,219,487.38H388.3V316.6c48.62,0,86.9,18.95,117.26,49.53.1.1,1.48.15,1.59.26C537.19,396.7,556.6,438.42,556.6,484.5Z"/><text class="cls-5" transform="translate(284 517)">START</text></g></svg>